<svg width="209" height="104" viewBox="0 0 209 104" fill="none" xmlns="http://www.w3.org/2000/svg">
<rect width="209" height="104" rx="50" fill="#FBD914"/>
<path d="M25.88 37.68V66H17V37.68H25.88ZM47.0106 66L38.7706 53.72V66H29.8906V37.68H38.7706V49.6L46.8906 37.68H56.9306L47.1706 51.24L57.5706 66H47.0106ZM68.9659 37.68V66H60.0859V37.68H68.9659ZM92.9766 37.68V44.72H81.8566V48.64H89.8566V55.32H81.8566V66H72.9766V37.68H92.9766ZM104.664 37.68V53.64C104.664 54.9467 104.944 55.9867 105.504 56.76C106.091 57.5067 107.024 57.88 108.304 57.88C109.584 57.88 110.531 57.5067 111.144 56.76C111.758 55.9867 112.064 54.9467 112.064 53.64V37.68H120.904V53.64C120.904 56.3333 120.344 58.64 119.224 60.56C118.104 62.4533 116.571 63.88 114.624 64.84C112.678 65.8 110.504 66.28 108.104 66.28C105.704 66.28 103.571 65.8 101.704 64.84C99.8644 63.88 98.4244 62.4533 97.3844 60.56C96.3444 58.6667 95.8244 56.36 95.8244 53.64V37.68H104.664ZM138.974 66L133.654 55.84H133.614V66H124.734V37.68H137.934C140.228 37.68 142.188 38.0933 143.814 38.92C145.441 39.72 146.654 40.8267 147.454 42.24C148.281 43.6267 148.694 45.2 148.694 46.96C148.694 48.8533 148.161 50.5333 147.094 52C146.054 53.4667 144.548 54.52 142.574 55.16L148.734 66H138.974ZM133.614 49.92H137.134C137.988 49.92 138.628 49.7333 139.054 49.36C139.481 48.96 139.694 48.3467 139.694 47.52C139.694 46.7733 139.468 46.1867 139.014 45.76C138.588 45.3333 137.961 45.12 137.134 45.12H133.614V49.92ZM178.691 66H169.811L160.411 51.76V66H151.531V37.68H160.411L169.811 52.16V37.68H178.691V66ZM191.583 37.68V66H182.703V37.68H191.583Z" fill="#0058AB"/>
</svg>
